<svg width="1440" height="1024" viewBox="0 0 1440 1024" fill="none" xmlns="http://www.w3.org/2000/svg">
<g clip-path="url(#clip0_15_308)">
<rect width="1440" height="1024" fill="white"/>
<path d="M0 577V669L14 682.5V764.5H31V638L49.5 616V623V655V752H61V595H93.5V507.5H139.5V807H148.5V507.5H184.5V785H206.5L212 635.5L221 623V609H239.5V623L256 638V785H265V638H292.5V587H321.5V635.5L340 682.5V725.5H365V559.5H382.5V525H395V552.5H408V533H419.5V595V616H440V587L457.5 577V486L470 464H496.5L503.5 475.5V525V602L513.5 623V533H543.5V602L555 566.5L571.5 544.5M571.5 544.5V507.5M571.5 544.5L586.5 566.5L599 587V602H608V544.5H640.5V525H659V552.5L664.5 563V602L670.5 616L680.5 587L670.5 525V486L680.5 464V438.5L701.5 418L730.5 429.5L748.5 453.5V475.5V544.5H730.5V552.5H748.5L747.5 539H771.5L788 566.5V609H803L822.5 328L837.5 309.5H857.5M857.5 309.5H877.5L883.5 328M857.5 309.5L856.848 302.5L857.5 229M883.5 328L877.5 587L890.5 595M883.5 328L890.5 587V595M890.5 595H912V635.5L918 699H928.5L918 563L936.5 559.5V539H972M972 539L989.5 552.5M972 539V654M989.5 552.5L1016 539L1039 552.5L1064 566.5V602V710.5H1076V587L1095.5 602L1110.5 627.5L1104.5 699L1110.5 710.5L1122 616L1165.5 635.5V678V717.5H1184V684H1193L1194.5 704.5L1213 699V678H1240.5V654L1254.5 635.5H1266L1277.5 654V668V704.5V717.5H1284L1294.5 725.5L1301.5 770.5V710.5H1313L1324.5 699L1332.5 710.5V738V761H1351L1360 749.5V725.5H1396V761H1421.5L1438 770.5M989.5 552.5V770.5" stroke="black" stroke-opacity="0.2" stroke-width="6"/>
<path d="M109 1037V1002H123.5V1037H109Z" fill="#D9D9D9" stroke="black" stroke-opacity="0.2" stroke-width="6"/>
<rect x="350" y="906" width="50" height="124" fill="#D9D9D9"/>
<rect x="352" y="908" width="46" height="120" stroke="black" stroke-opacity="0.2" stroke-width="4"/>
<path d="M1 734L197 626H1444V663V907H1416.5V663.11L1151.5 664.173V907H1123.5V664.285L853 665.37V907H822V665.494L531 666.661V907H506V666.761L208 667.956V907H183.5V677.918L1 781.5V734Z" fill="#D9D9D9"/>
<path d="M197 626L1 734V781.5L183.5 677.918M197 626H1444V663M197 626V668M1444 663L1416.5 663.11M1444 663V907H1416.5V663.11M197 668L183.5 677.918M197 668L208 667.956M183.5 677.918V907H208V667.956M208 667.956L506 666.761M506 666.761V907H531V666.661M506 666.761L531 666.661M531 666.661L822 665.494M822 665.494V907H853V665.37M822 665.494L853 665.37M853 665.37L1123.5 664.285M1123.5 664.285V907H1151.5V664.173M1123.5 664.285L1151.5 664.173M1151.5 664.173L1416.5 663.11" stroke="black" stroke-opacity="0.2" stroke-width="6"/>
<path d="M-0.5 1029.5L197 905.5H1439" stroke="black" stroke-opacity="0.2" stroke-width="6"/>
<ellipse cx="363.5" cy="843" rx="239.5" ry="108" fill="#D9D9D9"/>
<path d="M601.5 843C601.5 871.867 575.481 898.499 532.235 918C489.129 937.438 429.474 949.5 363.5 949.5C297.526 949.5 237.871 937.438 194.765 918C151.519 898.499 125.5 871.867 125.5 843C125.5 814.133 151.519 787.501 194.765 768C237.871 748.562 297.526 736.5 363.5 736.5C429.474 736.5 489.129 748.562 532.235 768C575.481 787.501 601.5 814.133 601.5 843Z" stroke="black" stroke-opacity="0.2" stroke-width="3"/>
<path d="M331.5 722L284.5 785.5V840L316 857.5C291.007 867.079 276.99 867.384 252 857.5L284.5 840V785.5L237 720C273.904 708.655 294.592 709.623 331.5 722Z" fill="white"/>
<path d="M284.5 785.5L331.5 722M284.5 785.5L237 720M284.5 785.5V840M331.5 722C292.666 730.204 272.033 729.52 237 720M331.5 722C294.592 709.623 273.904 708.655 237 720M284.5 840L252 857.5C276.99 867.384 291.007 867.079 316 857.5L284.5 840Z" stroke="black" stroke-opacity="0.2" stroke-width="6"/>
<path d="M494.5 707L447.5 770.5V825L479 842.5C454.008 851.644 439.993 852.717 415 842.5L447.5 825V770.5L400 705C436.539 693.397 457.252 694.574 494.5 707Z" fill="white"/>
<path d="M447.5 770.5L494.5 707M447.5 770.5L400 705M447.5 770.5V825M494.5 707C456.367 716.019 435.585 716.286 400 705M494.5 707C457.252 694.574 436.539 693.397 400 705M447.5 825L415 842.5C439.993 852.717 454.008 851.644 479 842.5L447.5 825Z" stroke="black" stroke-opacity="0.2" stroke-width="6"/>
<path d="M548 1030V986H563V1030H548Z" fill="#D9D9D9" stroke="black" stroke-opacity="0.2" stroke-width="6"/>
<path d="M628 1031V996H643V1031H628Z" fill="#D9D9D9" stroke="black" stroke-opacity="0.2" stroke-width="6"/>
<path d="M229 1031V996H244V1031H229Z" fill="#D9D9D9" stroke="black" stroke-opacity="0.2" stroke-width="6"/>
<path d="M665 1030V977H680V1030H665Z" fill="#D9D9D9" stroke="black" stroke-opacity="0.2" stroke-width="6"/>
<path d="M236 1031V978H251V1031H236Z" fill="#D9D9D9" stroke="black" stroke-opacity="0.2" stroke-width="6"/>
<path d="M588 1037V984H603V1037H588Z" fill="#D9D9D9" stroke="black" stroke-opacity="0.2" stroke-width="6"/>
<ellipse cx="610.5" cy="977" rx="87.5" ry="46" fill="#D9D9D9"/>
<path d="M696 977C696 988.589 687.028 999.563 671.441 1007.76C655.948 1015.9 634.405 1021 610.5 1021C586.595 1021 565.052 1015.9 549.559 1007.76C533.972 999.563 525 988.589 525 977C525 965.411 533.972 954.437 549.559 946.243C565.052 938.098 586.595 933 610.5 933C634.405 933 655.948 938.098 671.441 946.243C687.028 954.437 696 965.411 696 977Z" stroke="black" stroke-opacity="0.2" stroke-width="4"/>
<path d="M142 1044V991H157V1044H142Z" fill="#D9D9D9" stroke="black" stroke-opacity="0.2" stroke-width="6"/>
<ellipse cx="179.5" cy="984" rx="87.5" ry="46" fill="#D9D9D9"/>
<path d="M265 984C265 995.589 256.028 1006.56 240.441 1014.76C224.948 1022.9 203.405 1028 179.5 1028C155.595 1028 134.052 1022.9 118.559 1014.76C102.972 1006.56 94 995.589 94 984C94 972.411 102.972 961.437 118.559 953.243C134.052 945.098 155.595 940 179.5 940C203.405 940 224.948 945.098 240.441 953.243C256.028 961.437 265 972.411 265 984Z" stroke="black" stroke-opacity="0.2" stroke-width="4"/>
</g>
<defs>
<clipPath id="clip0_15_308">
<rect width="1440" height="1024" fill="white"/>
</clipPath>
</defs>
</svg>
