<svg width="1440" height="1024" viewBox="0 0 1440 1024" fill="none" xmlns="http://www.w3.org/2000/svg">
<g clip-path="url(#clip0_9_190)">
<rect width="1440" height="1024" fill="white"/>
<rect x="3" y="342" width="1434" height="273" stroke="black" stroke-opacity="0.2" stroke-width="6"/>
<rect width="14" height="275" transform="translate(259 343)" fill="black" fill-opacity="0.2"/>
<rect width="14" height="275" transform="translate(316 343)" fill="black" fill-opacity="0.2"/>
<rect width="14" height="275" transform="translate(373 343)" fill="black" fill-opacity="0.2"/>
<rect width="14" height="275" transform="translate(430 343)" fill="black" fill-opacity="0.2"/>
<rect width="14" height="275" transform="translate(487 343)" fill="black" fill-opacity="0.2"/>
<rect width="14" height="275" transform="translate(544 343)" fill="black" fill-opacity="0.2"/>
<rect width="14" height="275" transform="translate(601 343)" fill="black" fill-opacity="0.2"/>
<rect width="14" height="275" transform="translate(658 343)" fill="black" fill-opacity="0.2"/>
<rect width="14" height="275" transform="translate(713 343)" fill="black" fill-opacity="0.2"/>
<rect width="14" height="275" transform="translate(768 343)" fill="black" fill-opacity="0.2"/>
<rect width="14" height="275" transform="translate(823 343)" fill="black" fill-opacity="0.2"/>
<rect width="14" height="275" transform="translate(878 343)" fill="black" fill-opacity="0.2"/>
<rect width="14" height="275" transform="translate(933 343)" fill="black" fill-opacity="0.2"/>
<rect width="14" height="275" transform="translate(990 343)" fill="black" fill-opacity="0.2"/>
<rect width="14" height="275" transform="translate(1047 343)" fill="black" fill-opacity="0.2"/>
<rect width="14" height="275" transform="translate(1102 343)" fill="black" fill-opacity="0.2"/>
<rect width="14" height="275" transform="translate(1157 343)" fill="black" fill-opacity="0.2"/>
<rect width="14" height="275" transform="translate(1212 343)" fill="black" fill-opacity="0.2"/>
<rect width="14" height="275" transform="translate(1269 343)" fill="black" fill-opacity="0.2"/>
<rect width="14" height="275" transform="translate(1324 343)" fill="black" fill-opacity="0.2"/>
<rect width="14" height="275" transform="translate(1379 343)" fill="black" fill-opacity="0.2"/>
<path d="M17.1072 249L3.07992 310.947V351.702V382.675V434.842L-29.9844 466L42.1559 485.377H28.1287H3.07992H-14.4542V547.325H-29.9844L-38 638.615L-14.4542 659.808H3.07992L9 630L42.1559 659.808H62.6959L72.2144 638.615L101.5 642.5L128.825 659.808L161.889 681L180.926 638.615V547.325H205.975L219 485.377L237 421L205.975 382.675L188.942 310.947L161.889 351.702H121.31V281.5L91.2515 249H72.2144H17.1072Z" fill="#D9D9D9" stroke="black" stroke-opacity="0.2" stroke-width="6"/>
<path d="M795 37L781.5 58V81L766 106H781.5L822 125.5L845 106L878 98.5H901V69.5L878 37H854.5L822 58L795 37Z" fill="#D9D9D9" stroke="black" stroke-opacity="0.2" stroke-width="6"/>
<path d="M1333.5 1L1304.5 21.5L1309 45L1304.5 62.5L1317.5 74L1341 70L1369 74L1393.5 53L1424.5 62.5L1443 48.5V-3.5L1393.5 -8H1360.5L1333.5 1Z" fill="#D9D9D9" stroke="black" stroke-opacity="0.2" stroke-width="6"/>
<path d="M620 121L608 132V155L592.5 180H608L641.5 172.5L671.5 155L704.5 160.5L727.5 164.5V143.5L699 126L671.5 121L648.5 132L620 121Z" fill="#D9D9D9"/>
<path d="M577 180H592.5M592.5 180H608L641.5 172.5L671.5 155L704.5 160.5L727.5 164.5V143.5L699 126L671.5 121L648.5 132L620 121L608 132V155L592.5 180Z" stroke="black" stroke-opacity="0.2" stroke-width="6"/>
<path d="M313 731H621.5L977.5 1165V1243.5H644.5L313 802V731Z" fill="#D9D9D9"/>
<path d="M313 731H621.5L977.5 1165M313 731L644.5 1165M313 731V802L644.5 1243.5M977.5 1165H644.5M977.5 1165V1243.5H644.5M644.5 1165V1243.5" stroke="black" stroke-opacity="0.2" stroke-width="6"/>
<path d="M863 731H1171.5L1553.5 1165V1243.5H1194.5L863 802V731Z" fill="#D9D9D9"/>
<path d="M863 731H1171.5L1553.5 1165M863 731L1194.5 1165M863 731V802L1194.5 1243.5M1553.5 1165H1194.5M1553.5 1165V1243.5H1194.5M1194.5 1165V1243.5" stroke="black" stroke-opacity="0.2" stroke-width="6"/>
<path d="M89.555 113.215L162.097 0H190.113L178.106 19.6044L146.087 78.4176L117.571 121.547V139.191L134.581 150.464L301.177 165.657L387.727 172.029L502.292 175.949L557.324 191.143L581.338 175.949L645.875 136.251H715.915L747.934 117.626L810.47 80.8681L863 63.7143L719.918 150.464H645.875L557.324 211.237L502.292 195.064H380.723L106.064 175.949L-6 223V150.464L89.555 113.215Z" fill="#D9D9D9" stroke="black" stroke-opacity="0.2" stroke-width="6"/>
<path d="M407.5 155L387.5 161V184V209H403L436.5 201.5H466.5L499.5 189.5L522.5 193.5V172.5L494 155L466.5 150L443.5 161L407.5 155Z" fill="#D9D9D9" stroke="black" stroke-opacity="0.2" stroke-width="6"/>
<path d="M83 1L69 20V32.5L44 42V58H83V73.5H69H44H26.5V92.5H11L3 120.5L26.5 127H44V106.5L83 120.5L103.5 127L132 106.5H152.5L169.5 127L202.5 133.5L221.5 120.5V92.5H246.5L259.5 73.5V32.5L229.5 20L202.5 32.5H162H132V1H113H83Z" fill="#D9D9D9" stroke="black" stroke-opacity="0.2" stroke-width="6"/>
<path d="M104.5 196L117.5 177V170L128 165L150 170V177L165 180.5L180.5 175L197.5 180.5L211.5 183.5L223.5 187L225 200.5L197.5 202.5L182 192L160 204L140.5 194.5L117.5 222V204L104.5 196Z" fill="#D9D9D9" stroke="black" stroke-opacity="0.2" stroke-width="6"/>
<path d="M-11 251.5L11.5 218L39.5 182.5L75 171.5L109.855 210.789V232.895L132.884 243.947L158.983 210.789L182.78 218L211 232.895L246 243.947L225 307.105L182.78 313.421L158.983 327.5L125.207 318.158L95.2697 288.158L62.5 298.5L32 288.158L-11 251.5Z" fill="#D9D9D9" stroke="black" stroke-opacity="0.2" stroke-width="6"/>
<path d="M1367 977L1338 997.5L1342.5 1021L1338 1038.5L1351 1050L1374.5 1046L1402.5 1050L1427 1029L1458 1038.5L1476.5 1024.5V972.5L1427 968H1394L1367 977Z" fill="#D9D9D9" stroke="black" stroke-opacity="0.2" stroke-width="6"/>
<path d="M582 602H956.5L1338 1036V1114.5H913.5L582 673V602Z" fill="#D9D9D9"/>
<path d="M582 602H956.5L1338 1036M582 602L913.5 1036M582 602V673L913.5 1114.5M1338 1036H913.5M1338 1036V1114.5H913.5M913.5 1036V1114.5" stroke="black" stroke-opacity="0.2" stroke-width="6"/>
<path d="M1035.5 830C1035.5 846.342 1025.23 861.205 1008.49 872.006C991.752 882.805 968.6 889.5 943 889.5C917.4 889.5 894.248 882.805 877.51 872.006C860.767 861.205 850.5 846.342 850.5 830C850.5 813.658 860.767 798.795 877.51 787.994C894.248 777.195 917.4 770.5 943 770.5C968.6 770.5 991.752 777.195 1008.49 787.994C1025.23 798.795 1035.5 813.658 1035.5 830Z" fill="#D9D9D9" stroke="black"/>
</g>
<defs>
<clipPath id="clip0_9_190">
<rect width="1440" height="1024" fill="white"/>
</clipPath>
</defs>
</svg>
