<svg width="1440" height="1024" viewBox="0 0 1440 1024" fill="none" xmlns="http://www.w3.org/2000/svg">
<g clip-path="url(#clip0_6_42)">
<rect width="1440" height="1024" fill="white"/>
<rect x="983.5" y="192.5" width="346" height="699" fill="white"/>
<rect x="983.5" y="192.5" width="346" height="699" stroke="black"/>
<rect x="1028.5" y="245.5" width="255" height="205" stroke="black"/>
<rect x="1028.5" y="494.5" width="255" height="205" stroke="black"/>
<path d="M1063.5 511C1063.5 511.22 1063.38 511.489 1063.04 511.794C1062.7 512.097 1062.17 512.394 1061.48 512.653C1060.1 513.17 1058.17 513.5 1056 513.5C1053.83 513.5 1051.9 513.17 1050.52 512.653C1049.83 512.394 1049.3 512.097 1048.96 511.794C1048.62 511.489 1048.5 511.22 1048.5 511C1048.5 510.78 1048.62 510.511 1048.96 510.206C1049.3 509.903 1049.83 509.606 1050.52 509.347C1051.9 508.83 1053.83 508.5 1056 508.5C1058.17 508.5 1060.1 508.83 1061.48 509.347C1062.17 509.606 1062.7 509.903 1063.04 510.206C1063.38 510.511 1063.5 510.78 1063.5 511Z" fill="#D9D9D9" stroke="black"/>
<path d="M1213 733H1378L1543 1027H1378V1061.5L1213 760V733Z" fill="#D9D9D9"/>
<path d="M1213 733H1378L1543 1027H1378M1213 733L1378 1027M1213 733V760L1378 1061.5V1027" stroke="black"/>
<rect x="920.5" y="0.5" width="8" height="891" stroke="black"/>
<rect x="1012.5" y="851.5" width="29" height="172" fill="#D9D9D9"/>
<rect x="1012.5" y="851.5" width="29" height="172" stroke="black"/>
<rect width="419" height="10" transform="translate(0 197)" fill="#D6AE8A"/>
<rect width="419" height="10" transform="translate(0 400)" fill="#D6AE8A"/>
<rect width="669" height="10" transform="matrix(0 -1 1 0 199 669)" fill="#D6AE8A"/>
<path d="M285.5 461.5C285.5 461.656 285.42 461.86 285.153 462.103C284.886 462.346 284.471 462.588 283.917 462.801C282.811 463.226 281.25 463.5 279.5 463.5C277.75 463.5 276.189 463.226 275.083 462.801C274.529 462.588 274.114 462.346 273.847 462.103C273.58 461.86 273.5 461.656 273.5 461.5C273.5 461.344 273.58 461.14 273.847 460.897C274.114 460.654 274.529 460.412 275.083 460.199C276.189 459.774 277.75 459.5 279.5 459.5C281.25 459.5 282.811 459.774 283.917 460.199C284.471 460.412 284.886 460.654 285.153 460.897C285.42 461.14 285.5 461.344 285.5 461.5Z" fill="#D9D9D9" stroke="black"/>
<rect width="24" height="132" transform="translate(5 268)" fill="#15094B"/>
<rect width="18" height="132" transform="translate(29 268)" fill="#443E53"/>
<rect width="18" height="132" transform="translate(47 268)" fill="#E0B473"/>
<rect width="16" height="132" transform="translate(65 268)" fill="#E09D73"/>
<rect width="18" height="131" transform="translate(209 269)" fill="#5F5DB4"/>
<rect width="18" height="131" transform="translate(227 269)" fill="#7E7FC3"/>
<rect width="11" height="132" transform="translate(388.004 269) rotate(14.4793)" fill="#2D2D73"/>
<rect width="18" height="132" transform="translate(400.935 266) rotate(9.12549)" fill="#474358"/>
<rect x="423" y="4" width="493" height="661" stroke="black" stroke-opacity="0.2" stroke-width="8"/>
<rect width="498" height="8" transform="translate(419 143)" fill="black" fill-opacity="0.2"/>
<rect width="498" height="8" transform="translate(419 324)" fill="black" fill-opacity="0.2"/>
<rect width="498" height="8" transform="translate(419 492)" fill="black" fill-opacity="0.2"/>
<rect width="24" height="132" transform="translate(429 192)" fill="black" fill-opacity="0.2"/>
<rect width="24" height="132" transform="translate(459 192)" fill="black" fill-opacity="0.2"/>
<rect width="24" height="153" transform="translate(489 171)" fill="black" fill-opacity="0.2"/>
<rect width="24" height="153" transform="translate(519 171)" fill="black" fill-opacity="0.2"/>
<rect width="24" height="132" transform="translate(549 192)" fill="black" fill-opacity="0.2"/>
<rect width="17" height="132" transform="translate(764 360)" fill="black" fill-opacity="0.2"/>
<rect width="17" height="106" transform="translate(746 386)" fill="black" fill-opacity="0.2"/>
<rect width="24" height="139" transform="translate(788 353)" fill="black" fill-opacity="0.2"/>
<rect width="24" height="139" transform="translate(820 357)" fill="black" fill-opacity="0.2"/>
<rect width="24" height="139" transform="translate(852 360)" fill="black" fill-opacity="0.2"/>
<rect width="137" height="132" transform="translate(584 192)" fill="black" fill-opacity="0.2"/>
<rect width="5" height="132" transform="translate(764 192)" fill="black" fill-opacity="0.2"/>
<rect width="5" height="132" transform="translate(775 192)" fill="black" fill-opacity="0.2"/>
<rect width="5" height="160" transform="translate(786 164)" fill="black" fill-opacity="0.2"/>
<rect width="5" height="160" transform="translate(797 164)" fill="black" fill-opacity="0.2"/>
<rect width="5" height="160" transform="translate(903 164)" fill="black" fill-opacity="0.2"/>
<rect width="5" height="160" transform="translate(890 164)" fill="black" fill-opacity="0.2"/>
<path d="M341.478 471L434 541.738V568.71V671H0.161499V568.71L-76 496.954V471H341.478Z" fill="#D9D9D9"/>
<path d="M-76 471L0.161499 541.738M-76 471H341.478L434 541.738M-76 471V496.954L0.161499 568.71M0.161499 541.738H434M0.161499 541.738V568.71M434 541.738V568.71M0.161499 568.71H434M0.161499 568.71V671H434V568.71" stroke="url(#paint0_linear_6_42)"/>
<path d="M307 531H94.619L37 471.37V461H240.81L307 521.148V531Z" fill="#D9D9D9"/>
<path d="M94.619 521.148V531M94.619 521.148H307M94.619 521.148L37 461M94.619 531H307V521.148M94.619 531L37 471.37V461M307 521.148L240.81 461H37" stroke="black"/>
<path d="M250.522 493.922C250.37 497.704 247.924 501.294 243.445 504.542C238.971 507.786 232.541 510.633 224.6 512.931C208.723 517.526 186.917 519.896 162.95 518.936C138.984 517.976 117.437 513.869 101.978 508.019C94.2464 505.093 88.0648 501.741 83.8654 498.149C79.6605 494.554 77.5089 490.779 77.6604 486.997C77.812 483.215 80.2586 479.624 84.7376 476.376C89.2109 473.132 95.6408 470.286 103.582 467.987C119.459 463.392 141.266 461.022 165.232 461.982C189.198 462.942 210.745 467.049 226.204 472.9C233.936 475.826 240.117 479.178 244.317 482.769C248.522 486.365 250.673 490.139 250.522 493.922Z" fill="black" stroke="black"/>
<ellipse cx="164" cy="488.5" rx="15" ry="7.5" fill="#4B4646"/>
<path d="M273.5 462.5H285.5V478.567C283.21 479.206 281.397 479.506 279.574 479.5C277.748 479.494 275.887 479.18 273.5 478.56V462.5Z" fill="black" fill-opacity="0.2" stroke="black"/>
<path d="M1265.25 797.026C1265.02 809.485 1258.22 821.344 1245.88 832.129C1233.54 842.915 1215.74 852.548 1193.73 860.527C1149.71 876.483 1089.08 885.748 1022.28 884.498C955.468 883.249 895.226 871.723 851.84 854.133C830.144 845.337 812.715 835.045 800.786 823.805C788.856 812.566 782.506 800.461 782.739 788.002C782.972 775.543 789.771 763.684 802.112 752.899C814.453 742.114 832.255 732.48 854.265 724.501C898.277 708.546 958.909 699.281 1025.72 700.53C1092.52 701.78 1152.77 713.305 1196.15 730.895C1217.85 739.692 1235.28 749.984 1247.21 761.223C1259.13 772.462 1265.48 784.567 1265.25 797.026Z" fill="#D9D9D9" stroke="black" stroke-width="2"/>
<path d="M1116.5 791C1116.5 797.066 1111.68 802.685 1103.59 806.818C1095.53 810.937 1084.36 813.5 1072 813.5C1059.64 813.5 1048.47 810.937 1040.41 806.818C1032.32 802.685 1027.5 797.066 1027.5 791C1027.5 784.934 1032.32 779.315 1040.41 775.182C1048.47 771.063 1059.64 768.5 1072 768.5C1084.36 768.5 1095.53 771.063 1103.59 775.182C1111.68 779.315 1116.5 784.934 1116.5 791Z" fill="#D9D9D9" stroke="black"/>
<path d="M841 740C836 799 914 802 909 740" stroke="black"/>
<ellipse cx="875" cy="740" rx="34" ry="7" fill="black" fill-opacity="0.2"/>
<path d="M1131 702C1131 760.001 1199 763.967 1199 702" stroke="black"/>
<ellipse cx="1165" cy="702" rx="34" ry="7" fill="black" fill-opacity="0.2"/>
<path d="M1030.5 740.5V595.5C1030.17 572.557 1042 561 1058.5 561C1075 561 1087.95 570.591 1090 595.5V740.5C1066.76 753.809 1053.73 752.66 1030.5 740.5Z" fill="#F0F0F0" stroke="black"/>
<path d="M1049 512V564C1055.55 566.61 1058.88 566.781 1064 564V512C1058.51 514.954 1055.21 514.827 1049 512Z" fill="#F0F0F0" stroke="black"/>
<path d="M208.5 509.5L286 478V475.5L208.5 506.5V509.5Z" fill="#D9D9D9" stroke="black"/>
<rect x="2" y="673" width="430" height="349" stroke="black" stroke-opacity="0.2" stroke-width="4"/>
<rect width="434" height="12" transform="translate(0 848)" fill="black" fill-opacity="0.2"/>
<rect width="3" height="169" transform="translate(4 679)" fill="black" fill-opacity="0.2"/>
<rect width="3" height="169" transform="translate(4 679)" fill="black" fill-opacity="0.2"/>
<rect width="3" height="169" transform="translate(7 679)" fill="black" fill-opacity="0.2"/>
<g clip-path="url(#clip1_6_42)">
<rect width="3" height="169" transform="translate(7 679)" fill="black" fill-opacity="0.2"/>
<rect width="3" height="169" transform="translate(7 679)" fill="black" fill-opacity="0.2"/>
</g>
<g clip-path="url(#clip2_6_42)">
<rect width="3" height="169" transform="translate(10 679)" fill="black" fill-opacity="0.2"/>
<rect width="3" height="169" transform="translate(10 679)" fill="black" fill-opacity="0.2"/>
</g>
<g clip-path="url(#clip3_6_42)">
<rect width="3" height="169" transform="translate(13 679)" fill="black" fill-opacity="0.1"/>
<rect width="3" height="169" transform="translate(13 679)" fill="black" fill-opacity="0.2"/>
</g>
<g clip-path="url(#clip4_6_42)">
<rect width="3" height="169" transform="translate(16 679)" fill="black" fill-opacity="0.03"/>
<rect width="3" height="169" transform="translate(16 679)" fill="black" fill-opacity="0.2"/>
</g>
<g clip-path="url(#clip5_6_42)">
<rect width="3" height="169" transform="translate(19.2954 679.294) rotate(-3.8733)" fill="black" fill-opacity="0.1"/>
<rect width="3" height="169" transform="translate(19.2954 679.294) rotate(-3.8733)" fill="black" fill-opacity="0.2"/>
</g>
<g clip-path="url(#clip6_6_42)">
<rect width="3" height="169" transform="translate(23 680.203) rotate(-3.8733)" fill="black" fill-opacity="0.03"/>
<rect width="3" height="169" transform="translate(23 680.203) rotate(-3.8733)" fill="black" fill-opacity="0.2"/>
</g>
<g clip-path="url(#clip7_6_42)">
<rect width="3" height="169" transform="translate(28 680.203) rotate(-3.8733)" fill="black" fill-opacity="0.01"/>
<rect width="3" height="169" transform="translate(28 680.203) rotate(-3.8733)" fill="black" fill-opacity="0.2"/>
</g>
<g clip-path="url(#clip8_6_42)">
<rect width="3" height="169" transform="translate(42.7046 679.908)" fill="black" fill-opacity="0.01"/>
<rect width="3" height="169" transform="translate(42.7046 679.908)" fill="black" fill-opacity="0.2"/>
</g>
<g clip-path="url(#clip9_6_42)">
<rect width="3" height="169" transform="translate(50 680)" fill="black" fill-opacity="0.01"/>
<rect width="3" height="169" transform="translate(50 680)" fill="black" fill-opacity="0.2"/>
</g>
<g clip-path="url(#clip10_6_42)">
<rect width="3" height="169" transform="translate(421 680)" fill="black" fill-opacity="0.01"/>
<rect width="3" height="169" transform="translate(421 680)" fill="black" fill-opacity="0.2"/>
</g>
<g clip-path="url(#clip11_6_42)">
<rect width="3" height="169" transform="translate(426 680)" fill="black" fill-opacity="0.01"/>
<rect width="3" height="169" transform="translate(426 680)" fill="black" fill-opacity="0.2"/>
</g>
<g clip-path="url(#clip12_6_42)">
<rect width="3" height="169" transform="translate(411 680)" fill="black" fill-opacity="0.01"/>
<rect width="3" height="169" transform="translate(411 680)" fill="black" fill-opacity="0.2"/>
</g>
<g clip-path="url(#clip13_6_42)">
<rect width="3" height="169" transform="translate(406.419 681) rotate(5.91613)" fill="black" fill-opacity="0.01"/>
<rect width="3" height="169" transform="translate(406.419 681) rotate(5.91613)" fill="black" fill-opacity="0.2"/>
</g>
<path d="M633 1020C633 1020 615.353 909.5 633 819.5C637.466 796.724 656.322 781.441 682 772.792M893 1027C893 1027 893 938.5 893 847.5C893 827.021 880.725 809.783 861.5 796.39M682 772.792V1027M682 772.792C700.014 766.725 721.385 763.922 743.5 764.088M743.5 764.088V1027M743.5 764.088C765.099 764.25 787.408 767.243 807.99 772.792M807.99 772.792V1027M807.99 772.792C828.282 778.263 846.896 786.217 861.5 796.39M861.5 796.39V1020" stroke="black" stroke-opacity="0.2" stroke-width="6"/>
</g>
<defs>
<linearGradient id="paint0_linear_6_42" x1="69" y1="577" x2="434" y2="552" gradientUnits="userSpaceOnUse">
<stop stop-color="#3C1A00"/>
<stop offset="1" stop-color="#7E5B38"/>
</linearGradient>
<clipPath id="clip0_6_42">
<rect width="1440" height="1024" fill="white"/>
</clipPath>
<clipPath id="clip1_6_42">
<rect width="3" height="169" fill="white" transform="translate(7 679)"/>
</clipPath>
<clipPath id="clip2_6_42">
<rect width="3" height="169" fill="white" transform="translate(10 679)"/>
</clipPath>
<clipPath id="clip3_6_42">
<rect width="3" height="169" fill="white" transform="translate(13 679)"/>
</clipPath>
<clipPath id="clip4_6_42">
<rect width="3" height="169" fill="white" transform="translate(16 679)"/>
</clipPath>
<clipPath id="clip5_6_42">
<rect width="3" height="169" fill="white" transform="translate(19.2954 679.294) rotate(-3.8733)"/>
</clipPath>
<clipPath id="clip6_6_42">
<rect width="3" height="169" fill="white" transform="translate(23 680.203) rotate(-3.8733)"/>
</clipPath>
<clipPath id="clip7_6_42">
<rect width="3" height="169" fill="white" transform="translate(28 680.203) rotate(-3.8733)"/>
</clipPath>
<clipPath id="clip8_6_42">
<rect width="3" height="169" fill="white" transform="translate(42.7046 679.908)"/>
</clipPath>
<clipPath id="clip9_6_42">
<rect width="3" height="169" fill="white" transform="translate(50 680)"/>
</clipPath>
<clipPath id="clip10_6_42">
<rect width="3" height="169" fill="white" transform="translate(421 680)"/>
</clipPath>
<clipPath id="clip11_6_42">
<rect width="3" height="169" fill="white" transform="translate(426 680)"/>
</clipPath>
<clipPath id="clip12_6_42">
<rect width="3" height="169" fill="white" transform="translate(411 680)"/>
</clipPath>
<clipPath id="clip13_6_42">
<rect width="3" height="169" fill="white" transform="translate(406.419 681) rotate(5.91613)"/>
</clipPath>
</defs>
</svg>
